<svg width="34" height="32" viewBox="0 0 34 32" fill="none" xmlns="http://www.w3.org/2000/svg">
<path d="M17 32C7.61088 32 0 24.8368 0 16C0 7.16318 7.61088 0 17 0C26.3891 0 34 7.16318 34 16C34 24.8368 26.3891 32 17 32ZM17 1.74059C8.67782 1.74059 1.84937 8.16736 1.84937 16C1.84937 23.8326 8.67782 30.2594 17 30.2594C25.3222 30.2594 32.1506 23.8326 32.1506 16C32.1506 8.16736 25.3222 1.74059 17 1.74059Z" fill="black"/>
<path d="M7.96655 15.0627H26.0335V16.9372H7.96655V15.0627Z" fill="black"/>
<path d="M16.0042 7.49792H17.9958V24.5021H16.0042V7.49792Z" fill="black"/>
</svg>
