<svg width="25" height="28" viewBox="0 0 25 28" fill="none" xmlns="http://www.w3.org/2000/svg">
<path d="M11.4583 4.66669H4.16665C3.61411 4.66669 3.08421 4.91252 2.69351 5.3501C2.30281 5.78769 2.08331 6.38118 2.08331 7.00002V23.3334C2.08331 23.9522 2.30281 24.5457 2.69351 24.9833C3.08421 25.4209 3.61411 25.6667 4.16665 25.6667H18.75C19.3025 25.6667 19.8324 25.4209 20.2231 24.9833C20.6138 24.5457 20.8333 23.9522 20.8333 23.3334V15.1667" stroke="#828282" stroke-width="2" stroke-linecap="round" stroke-linejoin="round"/>
<path d="M19.2708 2.91665C19.6852 2.45252 20.2473 2.19177 20.8333 2.19177C21.4194 2.19177 21.9814 2.45252 22.3958 2.91665C22.8102 3.38078 23.043 4.01027 23.043 4.66665C23.043 5.32302 22.8102 5.95252 22.3958 6.41665L12.5 17.5L8.33331 18.6666L9.37498 14L19.2708 2.91665Z" stroke="#828282" stroke-width="2" stroke-linecap="round" stroke-linejoin="round"/>
</svg>
