<svg width="25" height="28" viewBox="0 0 25 28" fill="none" xmlns="http://www.w3.org/2000/svg">
<g clip-path="url(#clip0_16_1491)">
<path d="M24.1071 4.375H19.51L17.6127 1.27148C17.0815 0.482727 16.2612 0 15.3237 0H9.67634C8.73884 0 7.8683 0.482727 7.38839 1.27148L5.48995 4.375H0.892857C0.3976 4.375 0 4.76492 0 5.25V6.125C0 6.61172 0.3976 7 0.892857 7H1.78571V24.5C1.78571 26.4332 3.38449 28 5.35714 28H19.6429C21.6155 28 23.2143 26.4332 23.2143 24.5V7H24.1071C24.6038 7 25 6.61172 25 6.125V5.25C25 4.76492 24.6038 4.375 24.1071 4.375ZM9.59263 2.7825C9.64844 2.6868 9.76004 2.625 9.87723 2.625H15.1228C15.2414 2.625 15.353 2.68652 15.4088 2.78223L16.3839 4.375H8.61607L9.59263 2.7825ZM19.6429 25.375H5.35714C4.86401 25.375 4.46429 24.9833 4.46429 24.5V7H20.5357V24.5C20.5357 24.9813 20.1339 25.375 19.6429 25.375ZM12.5 22.75C12.9935 22.75 13.3929 22.3587 13.3929 21.875V10.5C13.3929 10.0163 12.9935 9.625 12.5 9.625C12.0065 9.625 11.6071 10.0188 11.6071 10.5V21.875C11.6071 22.3563 12.0089 22.75 12.5 22.75ZM8.03571 22.75C8.52679 22.75 8.92857 22.3563 8.92857 21.875V10.5C8.92857 10.0163 8.52924 9.625 8.03571 9.625C7.54219 9.625 7.14286 10.0188 7.14286 10.5V21.875C7.14286 22.3563 7.54464 22.75 8.03571 22.75ZM16.9643 22.75C17.4578 22.75 17.8571 22.3587 17.8571 21.875V10.5C17.8571 10.0163 17.4578 9.625 16.9643 9.625C16.4708 9.625 16.0714 10.0188 16.0714 10.5V21.875C16.0714 22.3563 16.4732 22.75 16.9643 22.75Z" fill="#828282"/>
</g>
<defs>
<clipPath id="clip0_16_1491">
<rect width="25" height="28" fill="white"/>
</clipPath>
</defs>
</svg>
